<svg width="17" height="16" viewBox="0 0 17 16" fill="none" xmlns="http://www.w3.org/2000/svg">
<path d="M15.725 1.70174H13.6V1.28507C13.6 1.05507 13.4096 0.868408 13.175 0.868408C12.9404 0.868408 12.75 1.05507 12.75 1.28507V1.70174H4.25V1.28507C4.25 1.05507 4.0596 0.868408 3.825 0.868408C3.5904 0.868408 3.4 1.05507 3.4 1.28507V1.70174H1.275C0.57205 1.70174 0 2.26257 0 2.95174V14.6184C0 15.3076 0.57205 15.8684 1.275 15.8684H15.725C16.4279 15.8684 17 15.3076 17 14.6184V2.95174C17 2.26257 16.4279 1.70174 15.725 1.70174ZM1.275 2.53507H3.4V3.78507C3.4 4.01507 3.5904 4.20174 3.825 4.20174C4.0596 4.20174 4.25 4.01507 4.25 3.78507V2.53507H12.75V3.78507C12.75 4.01507 12.9404 4.20174 13.175 4.20174C13.4096 4.20174 13.6 4.01507 13.6 3.78507V2.53507H15.725C15.9596 2.53507 16.15 2.72174 16.15 2.95174V5.03507H0.85V2.95174C0.85 2.72174 1.0404 2.53507 1.275 2.53507ZM15.725 15.0351H1.275C1.0404 15.0351 0.85 14.8484 0.85 14.6184V5.86841H16.15V14.6184C16.15 14.8484 15.9596 15.0351 15.725 15.0351Z" fill="#828282"/>
<path d="M6.375 8.36843H5.525C5.2904 8.36843 5.1 8.18176 5.1 7.95176C5.1 7.72176 5.2904 7.5351 5.525 7.5351H6.375C6.6096 7.5351 6.8 7.72176 6.8 7.95176C6.8 8.18176 6.6096 8.36843 6.375 8.36843Z" fill="#828282"/>
<path d="M8.925 8.36843H8.075C7.8404 8.36843 7.65 8.18176 7.65 7.95176C7.65 7.72176 7.8404 7.5351 8.075 7.5351H8.925C9.1596 7.5351 9.35 7.72176 9.35 7.95176C9.35 8.18176 9.1596 8.36843 8.925 8.36843Z" fill="#828282"/>
<path d="M11.475 8.36843H10.625C10.3904 8.36843 10.2 8.18176 10.2 7.95176C10.2 7.72176 10.3904 7.5351 10.625 7.5351H11.475C11.7096 7.5351 11.9 7.72176 11.9 7.95176C11.9 8.18176 11.7096 8.36843 11.475 8.36843Z" fill="#828282"/>
<path d="M14.025 8.36843H13.175C12.9404 8.36843 12.75 8.18176 12.75 7.95176C12.75 7.72176 12.9404 7.5351 13.175 7.5351H14.025C14.2596 7.5351 14.45 7.72176 14.45 7.95176C14.45 8.18176 14.2596 8.36843 14.025 8.36843Z" fill="#828282"/>
<path d="M3.825 10.0351H2.975C2.7404 10.0351 2.55 9.84839 2.55 9.61839C2.55 9.38839 2.7404 9.20172 2.975 9.20172H3.825C4.0596 9.20172 4.25 9.38839 4.25 9.61839C4.25 9.84839 4.0596 10.0351 3.825 10.0351Z" fill="#828282"/>
<path d="M6.375 10.0351H5.525C5.2904 10.0351 5.1 9.84839 5.1 9.61839C5.1 9.38839 5.2904 9.20172 5.525 9.20172H6.375C6.6096 9.20172 6.8 9.38839 6.8 9.61839C6.8 9.84839 6.6096 10.0351 6.375 10.0351Z" fill="#828282"/>
<path d="M8.925 10.0351H8.075C7.8404 10.0351 7.65 9.84839 7.65 9.61839C7.65 9.38839 7.8404 9.20172 8.075 9.20172H8.925C9.1596 9.20172 9.35 9.38839 9.35 9.61839C9.35 9.84839 9.1596 10.0351 8.925 10.0351Z" fill="#828282"/>
<path d="M11.475 10.0351H10.625C10.3904 10.0351 10.2 9.84839 10.2 9.61839C10.2 9.38839 10.3904 9.20172 10.625 9.20172H11.475C11.7096 9.20172 11.9 9.38839 11.9 9.61839C11.9 9.84839 11.7096 10.0351 11.475 10.0351Z" fill="#828282"/>
<path d="M14.025 10.0351H13.175C12.9404 10.0351 12.75 9.84839 12.75 9.61839C12.75 9.38839 12.9404 9.20172 13.175 9.20172H14.025C14.2596 9.20172 14.45 9.38839 14.45 9.61839C14.45 9.84839 14.2596 10.0351 14.025 10.0351Z" fill="#828282"/>
<path d="M3.825 11.7017H2.975C2.7404 11.7017 2.55 11.5151 2.55 11.2851C2.55 11.0551 2.7404 10.8684 2.975 10.8684H3.825C4.0596 10.8684 4.25 11.0551 4.25 11.2851C4.25 11.5151 4.0596 11.7017 3.825 11.7017Z" fill="#828282"/>
<path d="M6.375 11.7017H5.525C5.2904 11.7017 5.1 11.5151 5.1 11.2851C5.1 11.0551 5.2904 10.8684 5.525 10.8684H6.375C6.6096 10.8684 6.8 11.0551 6.8 11.2851C6.8 11.5151 6.6096 11.7017 6.375 11.7017Z" fill="#828282"/>
<path d="M8.925 11.7017H8.075C7.8404 11.7017 7.65 11.5151 7.65 11.2851C7.65 11.0551 7.8404 10.8684 8.075 10.8684H8.925C9.1596 10.8684 9.35 11.0551 9.35 11.2851C9.35 11.5151 9.1596 11.7017 8.925 11.7017Z" fill="#828282"/>
<path d="M11.475 11.7017H10.625C10.3904 11.7017 10.2 11.5151 10.2 11.2851C10.2 11.0551 10.3904 10.8684 10.625 10.8684H11.475C11.7096 10.8684 11.9 11.0551 11.9 11.2851C11.9 11.5151 11.7096 11.7017 11.475 11.7017Z" fill="#828282"/>
<path d="M14.025 11.7017H13.175C12.9404 11.7017 12.75 11.5151 12.75 11.2851C12.75 11.0551 12.9404 10.8684 13.175 10.8684H14.025C14.2596 10.8684 14.45 11.0551 14.45 11.2851C14.45 11.5151 14.2596 11.7017 14.025 11.7017Z" fill="#828282"/>
<path d="M3.825 13.3684H2.975C2.7404 13.3684 2.55 13.1818 2.55 12.9518C2.55 12.7218 2.7404 12.5351 2.975 12.5351H3.825C4.0596 12.5351 4.25 12.7218 4.25 12.9518C4.25 13.1818 4.0596 13.3684 3.825 13.3684Z" fill="#828282"/>
<path d="M6.375 13.3684H5.525C5.2904 13.3684 5.1 13.1818 5.1 12.9518C5.1 12.7218 5.2904 12.5351 5.525 12.5351H6.375C6.6096 12.5351 6.8 12.7218 6.8 12.9518C6.8 13.1818 6.6096 13.3684 6.375 13.3684Z" fill="#828282"/>
<path d="M8.925 13.3684H8.075C7.8404 13.3684 7.65 13.1818 7.65 12.9518C7.65 12.7218 7.8404 12.5351 8.075 12.5351H8.925C9.1596 12.5351 9.35 12.7218 9.35 12.9518C9.35 13.1818 9.1596 13.3684 8.925 13.3684Z" fill="#828282"/>
<path d="M11.475 13.3684H10.625C10.3904 13.3684 10.2 13.1818 10.2 12.9518C10.2 12.7218 10.3904 12.5351 10.625 12.5351H11.475C11.7096 12.5351 11.9 12.7218 11.9 12.9518C11.9 13.1818 11.7096 13.3684 11.475 13.3684Z" fill="#828282"/>
<path d="M14.025 13.3684H13.175C12.9404 13.3684 12.75 13.1818 12.75 12.9518C12.75 12.7218 12.9404 12.5351 13.175 12.5351H14.025C14.2596 12.5351 14.45 12.7218 14.45 12.9518C14.45 13.1818 14.2596 13.3684 14.025 13.3684Z" fill="#828282"/>
</svg>
