<svg width="20" height="20" viewBox="0 0 20 20" fill="none" xmlns="http://www.w3.org/2000/svg">
<g clip-path="url(#clip0)">
<path fill-rule="evenodd" clip-rule="evenodd" d="M0.205999 13.422L0.209999 13.401L0.211 13.398L0.610001 11.401L0.611 11.398L0.813999 10.383C0.969 9.608 1.71 9 2.5 9H6.5C6.675 9 6.843 9.031 7 9.086V8.5C7 7.673 7.673 7 8.5 7H10V8.001H8.5C8.224 8.001 8 8.225 8 8.501V17.001H12.269C12.615 16.404 13.261 16.001 14 16.001C14.739 16.001 15.385 16.404 15.731 17.001H16.5C16.776 17.001 17 16.777 17 16.501V13.5H18V16.5C18 17.327 17.327 18 16.5 18H16C16 19.103 15.103 20 14 20C12.897 20 12 19.103 12 18H7.914C7.708 18.582 7.152 19 6.5 19H5.731C5.385 19.597 4.739 20 4 20C3.261 20 2.615 19.597 2.269 19H1.5C0.673 19 0 18.327 0 17.5V15.5C0 14.921 0.0919991 13.99 0.205999 13.422ZM4 13.001H1.31L1.51 12.001H4V13.001ZM15 18.001C15 18.552 14.551 19.001 14 19.001C13.449 19.001 13 18.552 13 18.001C13 17.45 13.449 17.001 14 17.001C14.551 17.001 15 17.45 15 18.001ZM5 18.001C5 18.552 4.551 19.001 4 19.001C3.449 19.001 3 18.552 3 18.001C3 17.45 3.449 17.001 4 17.001C4.551 17.001 5 17.45 5 18.001ZM2 18.001H1.5C1.224 18.001 1 17.777 1 17.501V16.001H1.5C1.776 16.001 2 15.777 2 15.501C2 15.225 1.776 15.001 1.5 15.001H1.019C1.04 14.676 1.077 14.314 1.122 14.001H4.5C4.776 14.001 5 13.777 5 13.501V11.501C5 11.225 4.776 11.001 4.5 11.001H1.71L1.794 10.58C1.856 10.271 2.186 10.001 2.5 10.001H6.5C6.776 10.001 7 10.225 7 10.501V17.501C7 17.777 6.776 18.001 6.5 18.001H6C6 16.898 5.103 16.001 4 16.001C2.897 16.001 2 16.898 2 18.001Z" fill="#313541"/>
<path d="M15.5 4C13.019 4 11 6.019 11 8.5C11 10.981 13.019 13 15.5 13C17.981 13 20 10.981 20 8.5C20 6.019 17.981 4 15.5 4ZM15.5 5C16.463 5 17.336 5.391 17.97 6.023L12.429 10.178C12.155 9.679 12 9.108 12 8.5C12 6.57 13.57 5 15.5 5ZM15.5 12C14.537 12 13.664 11.609 13.03 10.977L18.571 6.822C18.845 7.321 19 7.892 19 8.5C19 10.43 17.43 12 15.5 12Z" fill="#313541"/>
</g>
<defs>
<clipPath id="clip0">
<rect width="20" height="20" fill="white"/>
</clipPath>
</defs>
</svg>
