<svg width="20" height="20" viewBox="0 0 20 20" fill="none" xmlns="http://www.w3.org/2000/svg">
<path fill-rule="evenodd" clip-rule="evenodd" d="M18 0C17.4477 0 17 0.447715 17 1V2C17 2.55228 17.4477 3 18 3H19C19.5523 3 20 2.55228 20 2V1C20 0.447715 19.5523 0 19 0H18ZM19 1H18V2H19V1Z" fill="#8E9AA9"/>
<path fill-rule="evenodd" clip-rule="evenodd" d="M1 17C0.447715 17 0 17.4477 0 18V19C0 19.5523 0.447715 20 1 20H2C2.55228 20 3 19.5523 3 19V18C3 17.4477 2.55228 17 2 17H1ZM2 18H1V19H2V18Z" fill="#8E9AA9"/>
<path d="M16 3H17V4H16V3Z" fill="#8E9AA9"/>
<path d="M15 5V4H16V5H15Z" fill="#8E9AA9"/>
<path d="M14 6V5H15V6H14Z" fill="#8E9AA9"/>
<path d="M13 7V6H14V7H13Z" fill="#8E9AA9"/>
<path d="M12 8V7H13V8H12Z" fill="#8E9AA9"/>
<path d="M11 9V8H12V9H11Z" fill="#8E9AA9"/>
<path d="M10 10V9H11V10H10Z" fill="#8E9AA9"/>
<path d="M9 11V10H10V11H9Z" fill="#8E9AA9"/>
<path d="M8 12V11H9V12H8Z" fill="#8E9AA9"/>
<path d="M7 13V12H8V13H7Z" fill="#8E9AA9"/>
<path d="M6 14V13H7V14H6Z" fill="#8E9AA9"/>
<path d="M5 15V14H6V15H5Z" fill="#8E9AA9"/>
<path d="M4 16V15H5V16H4Z" fill="#8E9AA9"/>
<path d="M4 16V17H3V16H4Z" fill="#8E9AA9"/>
</svg>
