<svg width="26" height="30" viewBox="0 0 26 30" fill="none" xmlns="http://www.w3.org/2000/svg">
<path d="M24.662 2.30647C23.9757 1.83353 23.0173 1.41706 21.8146 1.06765C19.4471 0.379412 16.3172 0 12.9983 0C9.67938 0 6.54766 0.379412 4.18198 1.06765C2.9792 1.41706 2.02253 1.83353 1.33449 2.30647C0.230503 3.06529 0 3.87 0 4.41176V5.29412C0 6.04941 0.556326 7.29353 1.10745 8.13353L9.58406 21.0794C10.0191 21.7429 10.4003 23.0259 10.4003 23.8235V29.1176C10.4003 29.4229 10.5563 29.7071 10.8111 29.8676C10.9497 29.9559 11.1075 30 11.2669 30C11.3986 30 11.5321 29.9682 11.6551 29.9065L15.1213 28.1418C15.4142 27.9918 15.5997 27.6865 15.5997 27.3529V23.8235C15.5997 23.0259 15.9809 21.7429 16.4159 21.0794L24.8925 8.13353C25.4419 7.29353 26 6.04765 26 5.29412V4.41176C26 3.87 25.7678 3.06529 24.6655 2.30647H24.662ZM4.65858 2.76529C6.87522 2.12118 9.83709 1.76471 12.9983 1.76471C16.1594 1.76471 19.1231 2.11941 21.338 2.76529C23.7262 3.46059 24.2634 4.20529 24.2634 4.41176C24.2634 4.61824 23.7262 5.36471 21.338 6.05824C19.1213 6.70235 16.1594 7.05882 12.9983 7.05882C9.83709 7.05882 6.87348 6.70412 4.65858 6.05824C2.27036 5.36294 1.7331 4.61824 1.7331 4.41176C1.7331 4.20529 2.27036 3.45882 4.65858 2.76529ZM14.9723 20.1018C14.3518 21.0494 13.8648 22.6853 13.8648 23.8235V26.8076L12.1317 27.69V23.8235C12.1317 22.6835 11.6447 21.0494 11.0243 20.1018L2.56672 7.18412C3.04159 7.39059 3.58059 7.58294 4.18198 7.75588C6.54939 8.44412 9.67938 8.82353 12.9983 8.82353C16.3172 8.82353 19.4489 8.44412 21.8146 7.75588C22.4142 7.58118 22.9549 7.39059 23.4298 7.18235L14.9723 20.1V20.1018Z" fill="#8E9AA9"/>
</svg>
