<svg width="29" height="38" viewBox="0 0 29 38" fill="none" xmlns="http://www.w3.org/2000/svg">
<path d="M6.89741 29.7707V8.1907L0.00104332 6.9031V31.0573H0.00390554L6.89741 29.7707Z" fill="#F4F7FA" fill-opacity="0.8"/>
<path d="M28.5081 22.258C28.1779 21.163 27.7022 20.1306 27.0945 19.1878C26.482 18.2411 25.7461 17.3821 24.9048 16.6357C24.0655 15.8913 23.119 15.2586 22.0931 14.7588L22.0912 14.7578L14.1937 20.5005H16.8323C18.2946 20.5005 19.5512 21.006 20.5666 22.0038C21.5878 23.0101 22.1055 24.2535 22.1055 25.698C22.1055 27.1686 21.5935 28.4446 20.5839 29.4847C19.5723 30.5248 18.3166 31.0535 16.8524 31.0593H6.89637H-1.05143e-06V37.9981V38H16.8524L17.239 37.9981V37.9904C18.7703 37.9432 20.2221 37.6196 21.562 37.0293C23.0358 36.3782 24.3354 35.4941 25.4236 34.4001C26.5107 33.3051 27.3893 31.9906 28.0353 30.4892C28.6756 29.0032 29 27.3911 29 25.698C29.0009 24.5058 28.8354 23.3491 28.5081 22.258Z" fill="#F4F7FA" fill-opacity="0.8"/>
<path d="M27.8161 6.90314L16.7824 8.18883L16.2695 8.66745L11.9446 12.9444V13.7687V20.4995H14.1937L20.6603 14.0605L28.4515 6.30124L27.8342 6.90314H27.8161Z" fill="#F4F7FA" fill-opacity="0.8"/>
<path d="M18.0805 6.90312H18.0882H27.8164H27.8346L28.4519 6.30122L28.5667 6.18854V6.18663V-6.1131e-06H25.0898H0.00122643V6.12403V6.90312H6.8976H18.0805Z" fill="#F4F7FA" fill-opacity="0.8"/>
</svg>
