<svg width="32" height="20" viewBox="0 0 32 20" fill="none" xmlns="http://www.w3.org/2000/svg">
<path d="M29.4737 0H2.52632C1.13347 0 0 1.12167 0 2.5V17.5C0 18.8783 1.13347 20 2.52632 20H29.4737C30.8665 20 32 18.8783 32 17.5V2.5C32 1.12167 30.8665 0 29.4737 0ZM29.4737 1.66667C29.5242 1.66667 29.5714 1.67167 29.6202 1.68L16.9347 10.0483C16.4463 10.37 15.5554 10.37 15.0669 10.0483L2.38147 1.68C2.42863 1.67167 2.47747 1.66667 2.528 1.66667H29.4754H29.4737ZM29.4737 18.3333H2.52632C2.06147 18.3333 1.68421 17.96 1.68421 17.5V3.22333L14.1322 11.435C14.656 11.78 15.328 11.9533 16 11.9533C16.672 11.9533 17.344 11.78 17.8678 11.435L30.3158 3.22333V17.5C30.3158 17.96 29.9385 18.3333 29.4737 18.3333Z" fill="#6A7583"/>
</svg>
