<svg width="20" height="21" viewBox="0 0 20 21" fill="none" xmlns="http://www.w3.org/2000/svg">
<g clip-path="url(#clip0)">
<path d="M15.5 2.73926H12V2.23926C12 1.41226 11.327 0.739258 10.5 0.739258H8.5C7.673 0.739258 7 1.41226 7 2.23926V2.73926H3.5C2.673 2.73926 2 3.41226 2 4.23926V5.23926C2 5.89126 2.418 6.44726 3 6.65326V19.2393C3 20.0663 3.673 20.7393 4.5 20.7393H14.5C15.327 20.7393 16 20.0663 16 19.2393V6.65326C16.582 6.44726 17 5.89126 17 5.23926V4.23926C17 3.41226 16.327 2.73926 15.5 2.73926ZM8 2.23926C8 1.96326 8.224 1.73926 8.5 1.73926H10.5C10.776 1.73926 11 1.96326 11 2.23926V2.73926H8V2.23926ZM14.5 19.7393H4.5C4.224 19.7393 4 19.5153 4 19.2393V6.73926H15V19.2393C15 19.5153 14.776 19.7393 14.5 19.7393ZM16 5.23926C16 5.51526 15.776 5.73926 15.5 5.73926H3.5C3.224 5.73926 3 5.51526 3 5.23926V4.23926C3 3.96326 3.224 3.73926 3.5 3.73926H15.5C15.776 3.73926 16 3.96326 16 4.23926V5.23926Z" fill="#8E9AA9"/>
<path d="M12.5 8.73926C12.224 8.73926 12 8.96326 12 9.23926V17.2393C12 17.5153 12.224 17.7393 12.5 17.7393C12.776 17.7393 13 17.5153 13 17.2393V9.23926C13 8.96326 12.776 8.73926 12.5 8.73926Z" fill="#8E9AA9"/>
<path d="M9.5 8.73926C9.224 8.73926 9 8.96326 9 9.23926V17.2393C9 17.5153 9.224 17.7393 9.5 17.7393C9.776 17.7393 10 17.5153 10 17.2393V9.23926C10 8.96326 9.776 8.73926 9.5 8.73926Z" fill="#8E9AA9"/>
<path d="M6.5 8.73926C6.224 8.73926 6 8.96326 6 9.23926V17.2393C6 17.5153 6.224 17.7393 6.5 17.7393C6.776 17.7393 7 17.5153 7 17.2393V9.23926C7 8.96326 6.776 8.73926 6.5 8.73926Z" fill="#8E9AA9"/>
</g>
<defs>
<clipPath id="clip0">
<rect width="20" height="20" fill="white" transform="translate(0 0.739258)"/>
</clipPath>
</defs>
</svg>
