<svg width="20" height="20" viewBox="0 0 20 20" fill="none" xmlns="http://www.w3.org/2000/svg">
<path d="M18.5 0H16.5C16.224 0 16 0.224 16 0.5C16 0.776 16.224 1 16.5 1H18V2H16.5C16.224 2 16 2.224 16 2.5C16 2.776 16.224 3 16.5 3H18V4H16.5C16.224 4 16 4.224 16 4.5C16 4.776 16.224 5 16.5 5H18.5C18.776 5 19 4.776 19 4.5V0.5C19 0.224 18.776 0 18.5 0Z" fill="#8E9AA9"/>
<path d="M6.14648 6.34277L6.18066 7.16309C6.72298 6.52507 7.45443 6.20605 8.375 6.20605C9.40951 6.20605 10.1136 6.60254 10.4873 7.39551C10.7334 7.04004 11.0524 6.75293 11.4443 6.53418C11.8408 6.31543 12.3079 6.20605 12.8457 6.20605C14.4681 6.20605 15.293 7.0651 15.3203 8.7832V13.7393H14.0557V8.8584C14.0557 8.32975 13.9349 7.93555 13.6934 7.67578C13.4518 7.41146 13.0462 7.2793 12.4766 7.2793C12.0072 7.2793 11.6175 7.42057 11.3076 7.70312C10.9977 7.98112 10.8177 8.3571 10.7676 8.83105V13.7393H9.49609V8.89258C9.49609 7.81706 8.96973 7.2793 7.91699 7.2793C7.08757 7.2793 6.52018 7.63249 6.21484 8.33887V13.7393H4.9502V6.34277H6.14648Z" fill="#8E9AA9"/>
<path fill-rule="evenodd" clip-rule="evenodd" d="M12.6316 0.739258H1.57895C0.708421 0.739258 0 1.41226 0 2.23926V18.2393C0 19.0663 0.708421 19.7393 1.57895 19.7393H18.4211C19.2916 19.7393 20 19.0663 20 18.2393V6.73926H18.9474V18.2393C18.9474 18.5153 18.7116 18.7393 18.4211 18.7393H1.57895C1.28842 18.7393 1.05263 18.5153 1.05263 18.2393V2.23926C1.05263 1.96326 1.28842 1.73926 1.57895 1.73926H12.6316V0.739258Z" fill="#8E9AA9"/>
</svg>
