<svg width="26" height="32" viewBox="0 0 26 32" fill="none" xmlns="http://www.w3.org/2000/svg">
<path d="M25.0751 25.0671C23.1368 23.54 22.0254 21.2059 22.0254 18.6656V13.3326C22.0254 8.86529 19.1552 5.08772 15.2482 3.92512V2.66652C15.2482 1.19638 14.1079 0 12.7067 0C11.3055 0 10.1653 1.19638 10.1653 2.66652V3.92512C6.25823 5.0895 3.38808 8.86529 3.38808 13.3326V18.6656C3.38808 21.2059 2.27662 23.5382 0.338346 25.0671C0.0469264 25.2964 -0.0716746 25.6964 0.0435377 26.059C0.15875 26.4216 0.482361 26.667 0.846635 26.667H8.5557C8.49979 26.9585 8.46929 27.2554 8.46929 27.5558C8.46929 30.0054 10.3703 32 12.705 32C15.0398 32 16.9408 30.0054 16.9408 27.5558C16.9408 27.2572 16.912 26.9585 16.8561 26.667H24.5651C24.9294 26.667 25.253 26.4216 25.3682 26.059C25.4834 25.6964 25.3648 25.2964 25.0734 25.0671H25.0751ZM11.8596 2.66652C11.8596 2.17588 12.2391 1.77768 12.7067 1.77768C13.1744 1.77768 13.5539 2.17588 13.5539 2.66652V3.59624C13.2743 3.56958 12.9931 3.55536 12.7067 3.55536C12.4204 3.55536 12.1391 3.56958 11.8596 3.59624V2.66652ZM15.2482 27.554C15.2482 29.0242 14.1079 30.2205 12.7067 30.2205C11.3055 30.2205 10.1653 29.0242 10.1653 27.554C10.1653 27.25 10.2161 26.9496 10.311 26.6652H15.1025C15.1973 26.9496 15.2482 27.25 15.2482 27.554ZM2.95096 24.8875C3.383 24.3382 3.75914 23.7391 4.0675 23.108C4.74183 21.725 5.08238 20.23 5.08238 18.6656V13.3326C5.08238 8.92217 8.50317 5.33304 12.7067 5.33304C16.9103 5.33304 20.3311 8.92217 20.3311 13.3326V18.6656C20.3311 20.23 20.6733 21.725 21.346 23.108C21.6543 23.7409 22.0305 24.3382 22.4625 24.8875H2.94926H2.95096Z" fill="#6A7583"/>
</svg>
