<svg width="38" height="38" viewBox="0 0 38 38" fill="none" xmlns="http://www.w3.org/2000/svg">
<path d="M32.436 5.564C28.848 1.976 24.076 0 19 0C13.924 0 9.154 1.976 5.564 5.564C1.974 9.152 0 13.924 0 18.998C0 24.072 1.976 28.844 5.564 32.434C9.152 36.024 13.924 37.998 19 37.998C24.076 37.998 28.846 36.022 32.436 32.434C36.026 28.846 38 24.074 38 18.998C38 13.922 36.024 9.152 32.436 5.564ZM19 36C9.626 36 2 28.374 2 19C2 9.626 9.626 2 19 2C28.374 2 36 9.626 36 19C36 28.374 28.374 36 19 36Z" fill="white"/>
<path d="M31 18H20V7C20 6.448 19.552 6 19 6C18.448 6 18 6.448 18 7V18H7C6.448 18 6 18.448 6 19C6 19.552 6.448 20 7 20H18V31C18 31.552 18.448 32 19 32C19.552 32 20 31.552 20 31V20H31C31.552 20 32 19.552 32 19C32 18.448 31.552 18 31 18Z" fill="white"/>
</svg>
