<svg width="29" height="30" viewBox="0 0 29 30" fill="none" xmlns="http://www.w3.org/2000/svg">
<path d="M28.7982 28.743L19.7274 19.017C21.7711 16.9155 22.8945 14.1675 22.8945 11.25C22.8945 8.2455 21.704 5.4195 19.5412 3.2955C17.3784 1.1715 14.5044 0 11.4472 0C8.39006 0 5.51452 1.17 3.35328 3.2955C1.19204 5.421 0 8.2455 0 11.25C0 14.2545 1.19051 17.0805 3.35328 19.2045C5.51604 21.3285 8.39006 22.5 11.4472 22.5C14.0816 22.5 16.5787 21.6315 18.6025 20.0325L27.6733 29.757C27.8244 29.919 28.0289 30 28.2365 30C28.4212 30 28.6059 29.9355 28.7524 29.8035C29.0638 29.523 29.0836 29.049 28.7997 28.7445L28.7982 28.743ZM1.52477 11.25C1.52477 5.874 5.97546 1.5 11.4457 1.5C16.916 1.5 21.3667 5.874 21.3667 11.25C21.3667 16.626 16.916 21 11.4457 21C5.97546 21 1.52477 16.626 1.52477 11.25Z" fill="#8E9AA9"/>
</svg>
