<svg width="20" height="20" viewBox="0 0 20 20" fill="none" xmlns="http://www.w3.org/2000/svg">
<path d="M14.8522 14.647C14.6572 14.452 14.3402 14.452 14.1452 14.647L13.9992 14.793V14.5C13.9992 12.57 12.4292 11 10.4992 11C8.56924 11 6.99924 12.57 6.99924 14.5V16.5C6.99924 17.878 5.87724 19 4.49924 19C3.12124 19 1.99924 17.878 1.99924 16.5V9.5C1.99924 9.22386 1.77538 9 1.49924 9C1.22309 9 0.999237 9.22386 0.999237 9.5V16.5C0.999237 18.43 2.56924 20 4.49924 20C6.42924 20 7.99924 18.43 7.99924 16.5V14.5C7.99924 13.122 9.12124 12 10.4992 12C11.8772 12 12.9992 13.122 12.9992 14.5V14.793L12.8532 14.646C12.6582 14.451 12.3412 14.451 12.1462 14.646C11.9512 14.841 11.9512 15.158 12.1462 15.353L13.1462 16.353C13.2442 16.451 13.3722 16.5 13.5002 16.5C13.6282 16.5 13.7562 16.451 13.8542 16.353L14.8542 15.353C15.0492 15.158 15.0492 14.841 14.8542 14.646L14.8522 14.647Z" fill="#313541"/>
<path d="M1.5 8C0.673 8 0 7.327 0 6.5C0 5.673 0.673 5 1.5 5C2.327 5 3 5.673 3 6.5C3 7.327 2.327 8 1.5 8ZM1.5 6C1.224 6 1 6.224 1 6.5C1 6.776 1.224 7 1.5 7C1.776 7 2 6.776 2 6.5C2 6.224 1.776 6 1.5 6Z" fill="#313541"/>
<path d="M13.5 20C12.673 20 12 19.327 12 18.5C12 17.673 12.673 17 13.5 17C14.327 17 15 17.673 15 18.5C15 19.327 14.327 20 13.5 20ZM13.5 18C13.224 18 13 18.224 13 18.5C13 18.776 13.224 19 13.5 19C13.776 19 14 18.776 14 18.5C14 18.224 13.776 18 13.5 18Z" fill="#313541"/>
<path d="M6 5.5C7.15735 2.85114 9.80042 1 12.8759 1C15.754 1 18.2534 2.62109 19.5108 5H18.4779C17.3835 3.21055 15.2846 2 12.875 2C10.2472 2 7.98883 3.43982 7 5.5C7.98889 7.56024 10.2472 9 12.875 9C15.5028 9 17.7612 7.56024 18.75 5.5H19.7518C18.5945 8.14886 15.9514 10 12.8759 10C9.80042 10 7.15735 8.14886 6 5.5Z" fill="#313541"/>
<path d="M16 5.5C16 7.15686 14.6569 8.5 13 8.5C11.3431 8.5 10 7.15686 10 5.5C10 3.84314 11.3431 2.5 13 2.5C14.4865 2.5 15.7205 3.58114 15.9585 5H14.937C14.715 4.1374 13.9319 3.5 13 3.5C11.8954 3.5 11 4.39545 11 5.5C11 6.60455 11.8954 7.5 13 7.5C14.1046 7.5 15 6.60455 15 5.5H16Z" fill="#313541"/>
</svg>
